<svg width="24" height="24" viewBox="0 0 24 24" fill="none" xmlns="http://www.w3.org/2000/svg">
<path fill-rule="evenodd" clip-rule="evenodd" d="M20.0484 6.3516C20.2734 6.57663 20.3997 6.8818 20.3997 7.2C20.3997 7.5182 20.2734 7.82337 20.0484 8.0484L10.4484 17.6484C10.2234 17.8734 9.9182 17.9997 9.6 17.9997C9.2818 17.9997 8.97663 17.8734 8.7516 17.6484L3.9516 12.8484C3.73301 12.6221 3.61206 12.319 3.61479 12.0043C3.61753 11.6897 3.74373 11.3887 3.96622 11.1662C4.18871 10.9437 4.48968 10.8175 4.80432 10.8148C5.11895 10.8121 5.42208 10.933 5.6484 11.1516L9.6 15.1032L18.3516 6.3516C18.5766 6.12663 18.8818 6.00026 19.2 6.00026C19.5182 6.00026 19.8234 6.12663 20.0484 6.3516Z" fill="#3DAC3B"/>
</svg>
