<svg width="24" height="24" viewBox="0 0 24 24" fill="none" xmlns="http://www.w3.org/2000/svg">
<path fill-rule="evenodd" clip-rule="evenodd" d="M21.6 12C21.6 14.5461 20.5886 16.9879 18.7882 18.7882C16.9879 20.5886 14.5461 21.6 12 21.6C9.45392 21.6 7.01213 20.5886 5.21178 18.7882C3.41143 16.9879 2.4 14.5461 2.4 12C2.4 9.45392 3.41143 7.01212 5.21178 5.21177C7.01213 3.41143 9.45392 2.4 12 2.4C14.5461 2.4 16.9879 3.41143 18.7882 5.21177C20.5886 7.01212 21.6 9.45392 21.6 12ZM12 8.4C11.7892 8.39979 11.582 8.45514 11.3993 8.56048C11.2167 8.66581 11.065 8.8174 10.9596 9C10.8835 9.14145 10.7797 9.26618 10.6545 9.36679C10.5293 9.4674 10.3851 9.54185 10.2306 9.58572C10.0761 9.62959 9.91434 9.64199 9.75493 9.62218C9.59552 9.60238 9.44171 9.55077 9.30262 9.47041C9.16353 9.39006 9.04199 9.2826 8.9452 9.1544C8.84841 9.0262 8.77834 8.87988 8.73916 8.7241C8.69997 8.56832 8.69245 8.40626 8.71706 8.24752C8.74166 8.08879 8.79789 7.9366 8.8824 7.8C9.27866 7.11373 9.89029 6.57739 10.6224 6.27415C11.3546 5.97092 12.1663 5.91772 12.9318 6.12283C13.6972 6.32793 14.3736 6.77987 14.856 7.40856C15.3385 8.03725 15.6 8.80755 15.6 9.6C15.6002 10.3447 15.3695 11.0712 14.9397 11.6794C14.5099 12.2876 13.9021 12.7476 13.2 12.996V13.2C13.2 13.5183 13.0736 13.8235 12.8485 14.0485C12.6235 14.2736 12.3183 14.4 12 14.4C11.6817 14.4 11.3765 14.2736 11.1515 14.0485C10.9264 13.8235 10.8 13.5183 10.8 13.2V12C10.8 11.6817 10.9264 11.3765 11.1515 11.1515C11.3765 10.9264 11.6817 10.8 12 10.8C12.3183 10.8 12.6235 10.6736 12.8485 10.4485C13.0736 10.2235 13.2 9.91826 13.2 9.6C13.2 9.28174 13.0736 8.97652 12.8485 8.75147C12.6235 8.52643 12.3183 8.4 12 8.4ZM12 18C12.3183 18 12.6235 17.8736 12.8485 17.6485C13.0736 17.4235 13.2 17.1183 13.2 16.8C13.2 16.4817 13.0736 16.1765 12.8485 15.9515C12.6235 15.7264 12.3183 15.6 12 15.6C11.6817 15.6 11.3765 15.7264 11.1515 15.9515C10.9264 16.1765 10.8 16.4817 10.8 16.8C10.8 17.1183 10.9264 17.4235 11.1515 17.6485C11.3765 17.8736 11.6817 18 12 18Z" fill="#8B8B8B"/>
</svg>
