<svg width="120" height="24" viewBox="0 0 120 24" fill="none" xmlns="http://www.w3.org/2000/svg">
<path d="M10.8588 3.5124C11.2188 2.4072 12.7824 2.4072 13.1412 3.5124L14.4252 7.4628C14.5036 7.70339 14.6561 7.91302 14.8609 8.06173C15.0656 8.21044 15.3121 8.29061 15.5652 8.2908H19.7196C20.8824 8.2908 21.3648 9.7788 20.4252 10.4628L17.0652 12.9036C16.86 13.0524 16.7073 13.2624 16.6288 13.5034C16.5503 13.7444 16.5502 14.0041 16.6284 14.2452L17.9124 18.1956C18.2724 19.3008 17.0064 20.2212 16.0644 19.5372L12.7044 17.0964C12.4994 16.9476 12.2527 16.8675 11.9994 16.8675C11.7461 16.8675 11.4994 16.9476 11.2944 17.0964L7.9344 19.5372C6.9936 20.2212 5.7288 19.3008 6.0876 18.1956L7.3716 14.2452C7.44981 14.0041 7.44967 13.7444 7.3712 13.5034C7.29273 13.2624 7.13996 13.0524 6.9348 12.9036L3.576 10.464C2.6364 9.78 3.12 8.292 4.2816 8.292H8.4348C8.68806 8.29207 8.93484 8.21201 9.13983 8.06328C9.34482 7.91455 9.49749 7.70478 9.576 7.464L10.86 3.5136L10.8588 3.5124Z" fill="#F1DD29"/>
<path d="M34.8588 3.5124C35.2188 2.4072 36.7824 2.4072 37.1412 3.5124L38.4252 7.4628C38.5036 7.70339 38.6561 7.91302 38.8609 8.06173C39.0656 8.21044 39.3121 8.29061 39.5652 8.2908H43.7196C44.8824 8.2908 45.3648 9.7788 44.4252 10.4628L41.0652 12.9036C40.86 13.0524 40.7073 13.2624 40.6288 13.5034C40.5503 13.7444 40.5502 14.0041 40.6284 14.2452L41.9124 18.1956C42.2724 19.3008 41.0064 20.2212 40.0644 19.5372L36.7044 17.0964C36.4994 16.9476 36.2527 16.8675 35.9994 16.8675C35.7461 16.8675 35.4994 16.9476 35.2944 17.0964L31.9344 19.5372C30.9936 20.2212 29.7288 19.3008 30.0876 18.1956L31.3716 14.2452C31.4498 14.0041 31.4497 13.7444 31.3712 13.5034C31.2927 13.2624 31.14 13.0524 30.9348 12.9036L27.576 10.464C26.6364 9.78 27.12 8.292 28.2816 8.292H32.4348C32.6881 8.29207 32.9348 8.21201 33.1398 8.06328C33.3448 7.91455 33.4975 7.70478 33.576 7.464L34.86 3.5136L34.8588 3.5124Z" fill="#F1DD29"/>
<path d="M58.8588 3.5124C59.2188 2.4072 60.7824 2.4072 61.1412 3.5124L62.4252 7.4628C62.5036 7.70339 62.6561 7.91302 62.8609 8.06173C63.0656 8.21044 63.3121 8.29061 63.5652 8.2908H67.7196C68.8824 8.2908 69.3648 9.7788 68.4252 10.4628L65.0652 12.9036C64.86 13.0524 64.7073 13.2624 64.6288 13.5034C64.5503 13.7444 64.5502 14.0041 64.6284 14.2452L65.9124 18.1956C66.2724 19.3008 65.0064 20.2212 64.0644 19.5372L60.7044 17.0964C60.4994 16.9476 60.2527 16.8675 59.9994 16.8675C59.7461 16.8675 59.4994 16.9476 59.2944 17.0964L55.9344 19.5372C54.9936 20.2212 53.7288 19.3008 54.0876 18.1956L55.3716 14.2452C55.4498 14.0041 55.4497 13.7444 55.3712 13.5034C55.2927 13.2624 55.14 13.0524 54.9348 12.9036L51.576 10.464C50.6364 9.78 51.12 8.292 52.2816 8.292H56.4348C56.6881 8.29207 56.9348 8.21201 57.1398 8.06328C57.3448 7.91455 57.4975 7.70478 57.576 7.464L58.86 3.5136L58.8588 3.5124Z" fill="#F1DD29"/>
<path d="M82.8588 3.5124C83.2188 2.4072 84.7824 2.4072 85.1412 3.5124L86.4252 7.4628C86.5036 7.70339 86.6561 7.91302 86.8609 8.06173C87.0656 8.21044 87.3121 8.29061 87.5652 8.2908H91.7196C92.8824 8.2908 93.3648 9.7788 92.4252 10.4628L89.0652 12.9036C88.86 13.0524 88.7073 13.2624 88.6288 13.5034C88.5503 13.7444 88.5502 14.0041 88.6284 14.2452L89.9124 18.1956C90.2724 19.3008 89.0064 20.2212 88.0644 19.5372L84.7044 17.0964C84.4994 16.9476 84.2527 16.8675 83.9994 16.8675C83.7461 16.8675 83.4994 16.9476 83.2944 17.0964L79.9344 19.5372C78.9936 20.2212 77.7288 19.3008 78.0876 18.1956L79.3716 14.2452C79.4498 14.0041 79.4497 13.7444 79.3712 13.5034C79.2927 13.2624 79.14 13.0524 78.9348 12.9036L75.576 10.464C74.6364 9.78 75.12 8.292 76.2816 8.292H80.4348C80.6881 8.29207 80.9348 8.21201 81.1398 8.06328C81.3448 7.91455 81.4975 7.70478 81.576 7.464L82.86 3.5136L82.8588 3.5124Z" fill="#F1DD29"/>
<path d="M106.859 3.5124C107.219 2.4072 108.782 2.4072 109.141 3.5124L110.425 7.4628C110.504 7.70339 110.656 7.91302 110.861 8.06173C111.066 8.21044 111.312 8.29061 111.565 8.2908H115.72C116.882 8.2908 117.365 9.7788 116.425 10.4628L113.065 12.9036C112.86 13.0524 112.707 13.2624 112.629 13.5034C112.55 13.7444 112.55 14.0041 112.628 14.2452L113.912 18.1956C114.272 19.3008 113.006 20.2212 112.064 19.5372L108.704 17.0964C108.499 16.9476 108.253 16.8675 107.999 16.8675C107.746 16.8675 107.499 16.9476 107.294 17.0964L103.934 19.5372C102.994 20.2212 101.729 19.3008 102.088 18.1956L103.372 14.2452C103.45 14.0041 103.45 13.7444 103.371 13.5034C103.293 13.2624 103.14 13.0524 102.935 12.9036L99.576 10.464C98.6364 9.78 99.12 8.292 100.282 8.292H104.435C104.688 8.29207 104.935 8.21201 105.14 8.06328C105.345 7.91455 105.497 7.70478 105.576 7.464L106.86 3.5136L106.859 3.5124Z" fill="#CCCBCB"/>
</svg>
